<?xml version="1.0" encoding="utf-8"?>
<!-- Generator: Adobe Illustrator 26.5.0, SVG Export Plug-In . SVG Version: 6.00 Build 0)  -->
<svg version="1.1" id="Layer_1" xmlns:serif="http://www.serif.com/"
	 xmlns="http://www.w3.org/2000/svg" xmlns:xlink="http://www.w3.org/1999/xlink" x="0px" y="0px" viewBox="0 0 595.3 841.9"
	 style="enable-background:new 0 0 595.3 841.9;" xml:space="preserve">
<style type="text/css">
	.st0{fill:#1877F2;}
	.st1{fill:#FFFFFF;}
</style>
<g>
	<path class="st0" d="M595.3,420.9c0-164.4-133.3-297.6-297.6-297.6S0,256.6,0,420.9c0,148.6,108.8,271.7,251.1,294V507h-75.6v-86
		h75.6v-65.6c0-74.6,44.4-115.8,112.4-115.8c32.6,0,66.6,5.8,66.6,5.8v73.2h-37.5c-37,0-48.5,22.9-48.5,46.5v55.8h82.5l-13.2,86
		h-69.4v208C486.4,692.6,595.3,569.5,595.3,420.9z"/>
	<path class="st1" d="M413.5,507l13.2-86h-82.5v-55.8c0-23.5,11.5-46.5,48.5-46.5h37.5v-73.2c0,0-34.1-5.8-66.6-5.8
		c-68,0-112.4,41.2-112.4,115.8v65.6h-75.6v86h75.6v208c15.2,2.4,30.7,3.6,46.5,3.6s31.4-1.2,46.5-3.6V507H413.5z"/>
</g>
</svg>
