<?xml version="1.0" encoding="utf-8"?>
<!-- Generator: Adobe Illustrator 26.5.0, SVG Export Plug-In . SVG Version: 6.00 Build 0)  -->
<svg version="1.1" id="Layer_1" xmlns:serif="http://www.serif.com/"
	 xmlns="http://www.w3.org/2000/svg" xmlns:xlink="http://www.w3.org/1999/xlink" x="0px" y="0px" viewBox="0 0 595.3 841.9"
	 style="enable-background:new 0 0 595.3 841.9;" xml:space="preserve">
<style type="text/css">
	.st0{fill:url(#SVGID_1_);}
	.st1{fill:url(#SVGID_00000123407594492489564190000001933993870620532401_);}
	.st2{fill:url(#SVGID_00000069357077787985051260000010359150361190898320_);}
</style>
<g>
	
		<linearGradient id="SVGID_1_" gradientUnits="userSpaceOnUse" x1="0" y1="841.9658" x2="1" y2="841.9658" gradientTransform="matrix(-173.9531 574.6971 574.6971 173.9531 -483482 -146357.6406)">
		<stop  offset="0" style="stop-color:#515BD4"/>
		<stop  offset="0.26" style="stop-color:#9510B8"/>
		<stop  offset="0.66" style="stop-color:#E51804"/>
		<stop  offset="1" style="stop-color:#FEDA77"/>
	</linearGradient>
	<path class="st0" d="M297.6,123.3c-80.8,0-91,0.3-122.7,1.8c-31.7,1.4-53.3,6.5-72.2,13.8c-19.6,7.6-36.2,17.8-52.7,34.3
		c-16.5,16.5-26.7,33.1-34.3,52.7c-7.4,18.9-12.4,40.6-13.8,72.2C0.3,330,0,340.1,0,420.9c0,80.8,0.3,91,1.8,122.7
		c1.4,31.7,6.5,53.3,13.8,72.2c7.6,19.6,17.8,36.2,34.3,52.7c16.5,16.5,33.1,26.7,52.7,34.3c18.9,7.4,40.6,12.4,72.2,13.8
		c31.7,1.4,41.9,1.8,122.7,1.8c80.8,0,91-0.3,122.7-1.8c31.7-1.4,53.3-6.5,72.2-13.8c19.6-7.6,36.2-17.8,52.7-34.3
		c16.5-16.5,26.7-33.1,34.3-52.7c7.4-18.9,12.4-40.6,13.8-72.2c1.4-31.7,1.8-41.9,1.8-122.7c0-80.8-0.3-91-1.8-122.7
		c-1.4-31.7-6.5-53.3-13.8-72.2c-7.6-19.6-17.8-36.2-34.3-52.7c-16.5-16.5-33.1-26.7-52.7-34.3c-18.9-7.4-40.6-12.4-72.2-13.8
		C388.6,123.6,378.5,123.3,297.6,123.3L297.6,123.3z M297.6,176.9c79.5,0,88.9,0.3,120.3,1.7c29,1.3,44.8,6.2,55.3,10.2
		c13.9,5.4,23.8,11.8,34.2,22.3c10.4,10.4,16.9,20.3,22.3,34.2c4.1,10.5,8.9,26.2,10.2,55.3c1.4,31.4,1.7,40.8,1.7,120.3
		c0,79.5-0.3,88.9-1.7,120.3c-1.3,29-6.2,44.8-10.2,55.3c-5.4,13.9-11.8,23.8-22.3,34.2c-10.4,10.4-20.3,16.9-34.2,22.3
		c-10.5,4.1-26.2,8.9-55.3,10.2c-31.4,1.4-40.8,1.7-120.3,1.7c-79.5,0-88.9-0.3-120.3-1.7c-29-1.3-44.8-6.2-55.3-10.2
		c-13.9-5.4-23.8-11.8-34.2-22.3c-10.4-10.4-16.9-20.3-22.3-34.2c-4.1-10.5-8.9-26.2-10.2-55.3c-1.4-31.4-1.7-40.8-1.7-120.3
		c0-79.5,0.3-88.9,1.7-120.3c1.3-29,6.2-44.8,10.2-55.3c5.4-13.9,11.8-23.8,22.3-34.2c10.4-10.4,20.3-16.9,34.2-22.3
		c10.5-4.1,26.2-8.9,55.3-10.2C208.8,177.2,218.2,176.9,297.6,176.9z"/>
	
		<linearGradient id="SVGID_00000062896817573505381350000006780108090759304072_" gradientUnits="userSpaceOnUse" x1="0" y1="841.9658" x2="1" y2="841.9658" gradientTransform="matrix(-173.9531 574.6971 574.6971 173.9531 -483482 -146357.6406)">
		<stop  offset="0" style="stop-color:#515BD4"/>
		<stop  offset="0.26" style="stop-color:#9510B8"/>
		<stop  offset="0.66" style="stop-color:#E51804"/>
		<stop  offset="1" style="stop-color:#FFBF00"/>
	</linearGradient>
	<path style="fill:url(#SVGID_00000062896817573505381350000006780108090759304072_);" d="M297.6,520.2c-54.8,0-99.2-44.4-99.2-99.2
		c0-54.8,44.4-99.2,99.2-99.2c54.8,0,99.2,44.4,99.2,99.2C396.8,475.7,352.4,520.2,297.6,520.2z M297.6,268.1
		c-84.4,0-152.8,68.4-152.8,152.8c0,84.4,68.4,152.8,152.8,152.8c84.4,0,152.8-68.4,152.8-152.8C450.5,336.5,382,268.1,297.6,268.1z
		"/>
	
		<linearGradient id="SVGID_00000088124017736356672430000009840729504507253666_" gradientUnits="userSpaceOnUse" x1="0" y1="842.1424" x2="1" y2="842.1424" gradientTransform="matrix(-173.9531 574.6971 574.6971 173.9531 -483482 -146357.6406)">
		<stop  offset="0" style="stop-color:#515BD4"/>
		<stop  offset="0.26" style="stop-color:#9510B8"/>
		<stop  offset="0.66" style="stop-color:#E51804"/>
		<stop  offset="1" style="stop-color:#FFBF00"/>
	</linearGradient>
	<path style="fill:url(#SVGID_00000088124017736356672430000009840729504507253666_);" d="M492.2,262.1c0,19.7-16,35.7-35.7,35.7
		s-35.7-16-35.7-35.7c0-19.7,16-35.7,35.7-35.7S492.2,242.3,492.2,262.1z"/>
</g>
</svg>
