<?xml version="1.0" encoding="utf-8"?>
<!-- Generator: Adobe Illustrator 26.5.0, SVG Export Plug-In . SVG Version: 6.00 Build 0)  -->
<svg version="1.1" id="Apple" xmlns="http://www.w3.org/2000/svg" xmlns:xlink="http://www.w3.org/1999/xlink" x="0px" y="0px"
	 viewBox="0 0 512 512" style="enable-background:new 0 0 512 512;" xml:space="preserve">
<style type="text/css">
	.st0{fill:#00F6EF;}
	.st1{fill:#FFFFFF;}
	.st2{fill:#FF004F;}
</style>
<path d="M113.2,42.9h285.7c39.3,0,71.1,31.9,71.1,71.2v285.7c0,39.3-31.9,71.1-71.1,71.1H113.2c-39.3,0-71.2-31.9-71.2-71.1V114.1
	C42,74.8,73.9,42.9,113.2,42.9z"/>
<path class="st0" d="M389.4,221.9v-57.1c-74.6-3.1-77-70.9-77-77.3v-0.5h-57.7v222.3l0,0c0,25.2-20.5,45.6-45.7,45.6
	s-45.6-20.5-45.6-45.7s20.5-45.6,45.7-45.6c4.5,0,9,0.7,13.3,2v-58.9c-4.4-0.6-8.9-0.9-13.3-0.9c-57.1,0-103.4,46.3-103.4,103.4
	s46.3,103.4,103.4,103.4s103.4-46.3,103.4-103.4c0-1.5,0-2.9-0.1-4.3V195.6C338.9,219.8,389.4,221.9,389.4,221.9z"/>
<path class="st1" d="M406.4,236v-57.1c-74.6-3.1-77-70.9-77-77.3v-0.5h-57.7v222.3l0,0c0,25.2-20.5,45.7-45.7,45.6
	c-25.2,0-45.7-20.5-45.6-45.7s20.5-45.7,45.7-45.6c4.5,0,9,0.7,13.3,2v-58.9c-4.4-0.6-8.9-0.8-13.3-0.8
	c-57.1,0-103.4,46.3-103.4,103.5c0,57.1,46.3,103.4,103.5,103.4c57.1,0,103.4-46.3,103.4-103.5c0,0,0,0,0,0c0-1.5,0-2.9-0.1-4.3
	V209.6C355.9,233.9,406.4,236,406.4,236z"/>
<path class="st2" d="M313.8,101.1c2.8,15.1,10.9,38.8,34.6,52.7c-18.1-21.1-19-48.3-19-52.2v-0.5H313.8z"/>
<path class="st2" d="M406.4,236v-57.1c-5.7-0.2-11.4-0.9-17-2v44.9c0,0-50.5-2.1-77-26.4v109.4c0.1,1.4,0.1,2.9,0.1,4.3
	c0,57.1-46.3,103.4-103.4,103.4c-20.4,0-40.3-6-57.3-17.3c39.7,41,105.2,42.1,146.2,2.4c20.1-19.5,31.5-46.3,31.5-74.3
	c0-1.5,0-2.9-0.1-4.3V209.6C355.9,233.9,406.4,236,406.4,236z"/>
<path class="st2" d="M222.4,265.5c-24.1-7.4-49.7,6.2-57,30.4c-6.6,21.6,3.5,44.7,23.8,54.5c-14.9-20.4-10.5-49,9.9-63.9
	c11.6-8.5,26.5-11,40.3-6.8v-58.9c-4.4-0.6-8.9-0.8-13.3-0.8c-1.2,0-2.4,0-3.7,0.1L222.4,265.5z"/>
</svg>
